<svg width="800" height="800" viewBox="0 0 800 800" xmlns="http://www.w3.org/2000/svg"><title>eCalee-Logo</title><g fill="none" fill-rule="evenodd"><path fill="#34495E" d="M0 0h800v800H0z"/><g fill="#FFF"><path d="M216.898 410.41c-12.17 14.198-34.02 33.129-53.658 33.129-14.66 0-21.298-13.085-21.574-26.17-.83-26.169 28.212-53.173 53.935-52.895 6.361 0 14.382 1.67 14.382 9.744 0 9.744-9.68 24.777-48.126 37.305l-.277 4.454c-.553 7.517 6.085 10.301 12.447 10.301 14.106 0 30.978-14.755 41.488-23.107l1.383 7.239zm-24.893-32.294c0-1.392-1.106-2.506-2.49-2.228-9.957 2.506-21.573 12.25-26.828 25.335 17.701-5.847 29.595-19.488 29.318-23.107z"/><path d="M297.939 363.917c1.383-1.392 8.02-7.795 10.233-7.795 1.937 0 3.043 1.392 1.937 4.733l.276.279c19.361-16.704 31.808-34.8 31.808-41.481 0-3.341-2.213-4.733-5.255-3.898-3.596 1.114-26.276 1.67-70.807 54.287-13.83 16.426-24.063 38.697-24.063 54.009 0 14.198 6.638 22.55 21.02 22.55 25.17 0 68.871-32.85 87.956-49.833.553 10.3-2.49 13.085-10.234 20.323-38.723 37.584-71.913 49.833-90.721 49.833-22.127 0-38.17-13.92-38.17-36.748 0-29.51 24.617-61.247 45.084-80.457 16.872-16.147 58.637-48.44 82.424-48.44 11.893 0 19.638 6.403 20.191 18.93 1.383 27.005-50.063 78.508-74.956 82.127-5.808.835-11.063-3.34-11.063-9.744 0-6.124 5.255-11.97 9.68-15.59l14.66-13.085z"/><path d="M388.936 426.835c-3.872 3.062-16.595 13.363-21.02 13.363-5.532 0-17.149-13.363-17.425-23.664-.83-25.055 50.892-50.668 74.125-51.225 9.128-.278 13 7.239 13 9.744 0 2.506-5.255 4.455-6.915 5.011 3.873 1.67 5.809 3.898 5.809 8.352 0 6.403-17.425 20.323-17.425 29.789 0 3.34 3.042 4.732 6.085 4.732 8.297 0 19.637-10.3 28.212-16.147l1.66 7.517c-8.575 9.744-35.128 31.18-45.085 31.18-6.638 0-9.68-4.732-9.68-10.579 0-6.403 4.702-16.982 7.467-22.55l-.276-.278-18.532 14.755zm-24.063-5.29c.277 1.114 1.107 4.733 3.872 3.898 3.873-.835 10.234-.278 49.51-40.367l-.277-.279c-47.573 14.755-53.105 27.005-53.105 36.748z"/><path d="M516.72 410.688c-11.063 11.414-29.594 31.737-46.743 31.737-14.66 0-17.702-14.198-17.702-26.17 0-21.157 8.851-43.707 21.85-59.854 17.426-21.715 36.51-40.368 42.872-40.368 3.32 0 4.149 4.733 3.872 7.517-1.382 18.931-6.638 36.748-49.786 78.786-1.66 3.34-2.489 8.909-1.383 13.92 1.66 4.733 4.702 8.63 9.958 8.63 11.063 0 26.276-12.806 34.297-20.044l2.766 5.846zm-41.211-26.726c14.106-13.363 26.552-32.572 30.148-43.987-9.68 4.733-21.02 22.829-30.425 43.43l.277.557z"/><path d="M586.974 410.41c-12.17 14.198-34.02 33.129-53.658 33.129-14.66 0-21.297-13.085-21.574-26.17-.83-26.169 28.212-53.173 53.935-52.895 6.361 0 14.383 1.67 14.383 9.744 0 9.744-9.681 24.777-48.127 37.305l-.277 4.454c-.553 7.517 6.085 10.301 12.447 10.301 14.106 0 30.978-14.755 41.488-23.107l1.383 7.239zm-24.616-32.294c0-1.392-1.107-2.506-2.49-2.228-9.957 2.506-21.573 12.25-26.829 25.335 17.425-5.847 29.319-19.488 29.319-23.107z"/><path d="M658.058 410.41c-12.17 14.198-34.02 33.129-53.659 33.129-14.659 0-21.297-13.085-21.574-26.17-.83-26.169 28.213-53.173 53.935-52.895 6.362 0 14.383 1.67 14.383 9.744 0 9.744-9.68 24.777-48.127 37.305l-.276 4.454c-.553 7.517 6.085 10.301 12.446 10.301 14.106 0 30.978-14.755 41.489-23.107l1.383 7.239zm-24.617-32.294c0-1.392-1.106-2.506-2.49-2.228-9.956 2.506-21.573 12.25-26.828 25.335 17.425-5.847 29.595-19.488 29.318-23.107z"/></g></g></svg>