<svg width="800" height="800" viewBox="0 0 800 800" xmlns="http://www.w3.org/2000/svg"><title>PRSUIT Logo</title><g fill="none" fill-rule="evenodd"><path fill="#213140" d="M0 0h800v800H0z"/><path d="M142.23 428v-77.002h44.043V428H142.23zm50.538-22.998v-54.004h13.476c5.762 0 10.954 1.172 15.576 3.516 4.558 2.31 8.138 5.566 10.743 9.765 2.539 4.134 3.808 8.838 3.808 14.112 0 3.71-.7 7.177-2.1 10.4a25.435 25.435 0 0 1-6.103 8.594c-2.67 2.409-5.713 4.28-9.13 5.615-3.517 1.335-7.211 2.002-11.085 2.002h-15.185zm52.1 22.998v-77.002h43.993V428h-43.994zm50.585 0v-77.002h12.402c4.07 0 7.341.049 9.815.147 2.604.097 4.704.309 6.299.634 1.66.326 3.157.765 4.492 1.319 2.8 1.204 5.094 2.767 6.885 4.687a18.31 18.31 0 0 1 3.71 5.86 19.51 19.51 0 0 1 1.27 6.933c0 5.664-1.888 10.335-5.664 14.014-1.14 1.14-2.246 2.034-3.32 2.685-.977.586-2.67 1.433-5.078 2.54 2.05.683 3.597 1.318 4.638 1.904a14.761 14.761 0 0 1 3.125 2.392c4.362 3.907 6.543 9.31 6.543 16.211V428h-45.117zm79.883-76.514l41.309 33.838c3.906 3.125 6.705 6.201 8.398 9.229 1.725 3.092 2.588 6.543 2.588 10.351 0 4.688-1.302 8.92-3.906 12.696-2.572 3.776-6.104 6.575-10.596 8.398-1.237.52-2.295.879-3.174 1.074a29.479 29.479 0 0 1-3.71.635c-1.4.13-3.093.228-5.079.293a2814.574 2814.574 0 0 1-11.23-7.861 592.284 592.284 0 0 1-7.862-5.664 255.26 255.26 0 0 1-14.258-11.28c-4.492-3.71-8.056-7.015-10.693-9.912-2.604-2.767-4.46-5.192-5.566-7.275-.88-1.725-1.563-3.613-2.051-5.664-.521-2.051-.781-3.972-.781-5.762 0-4.948 1.27-9.245 3.808-12.89 2.54-3.679 6.104-6.446 10.694-8.301a27.663 27.663 0 0 1 5.322-1.465c1.725-.26 3.987-.407 6.787-.44zM349.164 428v-32.178L390.23 428h-41.065zm73.975-45.8l-37.989-31.202h37.989v31.201zm11.328 14.794v-45.996h44.19v75c2.896-.26 5.094-.553 6.591-.879 1.595-.358 3.206-.928 4.834-1.709a24.262 24.262 0 0 0 7.91-5.517c4.85-5.046 7.276-11.54 7.276-19.483v-17.822l-22.803-29.59h25.83v47.705c0 8.887-2.8 16.08-8.399 21.582-2.213 2.116-4.573 3.825-7.08 5.127-2.441 1.27-5.29 2.23-8.545 2.881-3.092.618-6.721.928-10.888.928-4.883 0-9.131-.31-12.744-.928-3.776-.586-6.983-1.53-9.62-2.832-2.734-1.302-5.143-2.962-7.226-4.98-2.93-2.8-5.208-6.283-6.836-10.45a34.904 34.904 0 0 1-2.49-13.037zm85.693-45.996h43.897V428H520.16v-77.002zm52.881 34.717v-34.717h88.818v34.62l-22.119-31.202h-.195V428h-44.19v-73.584h-.195l-22.119 31.299z" fill="#F2F1EF"/></g></svg>