<?xml version="1.0" standalone="no"?>
<!DOCTYPE svg PUBLIC "-//W3C//DTD SVG 20010904//EN"
 "http://www.w3.org/TR/2001/REC-SVG-20010904/DTD/svg10.dtd">
<svg version="1.0" xmlns="http://www.w3.org/2000/svg"
 width="260.000000pt" height="260.000000pt" viewBox="0 0 260.000000 260.000000"
 preserveAspectRatio="xMidYMid meet">
<metadata>
Created by potrace 1.11, written by Peter Selinger 2001-2013
</metadata>
<g transform="translate(0.000000,260.000000) scale(0.100000,-0.100000)"
fill="#000000" stroke="none">
<path d="M1214 1770 c-131 -192 -242 -349 -246 -350 -5 0 -40 49 -80 110 l-72
109 -328 -495 c-181 -273 -326 -499 -324 -503 2 -3 292 -5 643 -4 351 1 862 2
1135 3 l498 0 -73 112 c-41 62 -139 212 -219 333 -443 672 -540 820 -607 923
-40 61 -76 112 -80 112 -4 0 -115 -157 -247 -350z m346 134 c52 -80 97 -151
99 -156 2 -7 -6 -8 -23 -4 -14 3 -27 3 -27 -1 -4 -23 -7 -52 -10 -85 -2 -21
-6 -38 -10 -38 -3 0 -30 41 -58 90 -29 50 -55 90 -59 90 -4 -1 -25 -30 -47
-65 -42 -68 -49 -68 -58 -2 -3 21 -7 41 -10 43 -3 3 -24 0 -47 -6 -23 -6 -44
-9 -46 -7 -5 4 188 286 196 287 3 0 48 -66 100 -146z m-221 -237 c6 -35 11
-71 11 -80 0 -32 18 -17 66 58 27 41 52 75 56 75 3 0 36 -52 73 -116 37 -63
69 -113 71 -111 2 2 6 21 9 43 2 21 7 62 11 89 3 28 7 56 7 63 0 9 8 11 21 8
12 -3 24 -6 29 -6 4 0 58 -78 121 -172 62 -95 210 -321 329 -501 120 -181 217
-330 217 -332 0 -2 -204 -4 -452 -5 l-453 0 -232 347 -231 347 113 166 c108
158 114 165 156 177 67 17 66 18 78 -50z m-229 -543 c160 -240 289 -438 287
-440 -6 -6 -1151 -9 -1157 -3 -5 5 568 879 576 879 2 0 134 -196 294 -436z"/>
</g>
</svg>
