<svg width="23" height="23" viewBox="0 0 23 23" xmlns="http://www.w3.org/2000/svg"><title>Linkedin Logo</title><g fill="none" fill-rule="evenodd"><path d="M.075 1.686c0-.9.749-1.631 1.673-1.631h19.287c.923 0 1.672.73 1.672 1.631V21.2c0 .9-.749 1.631-1.672 1.631H1.748C.824 22.83.075 22.1.075 21.2V1.686z" fill="#069"/><path d="M6.936 19.12V8.836H3.517V19.12h3.419zM5.226 7.432c1.193 0 1.934-.79 1.934-1.777-.022-1.01-.741-1.777-1.91-1.777-1.17 0-1.935.768-1.935 1.777 0 .987.742 1.777 1.89 1.777h.021zM8.827 19.12h3.418v-5.743c0-.307.023-.614.113-.834.247-.614.81-1.25 1.754-1.25 1.237 0 1.732.943 1.732 2.325v5.502h3.418v-5.897c0-3.159-1.687-4.629-3.936-4.629-1.844 0-2.653 1.031-3.103 1.733h.023V8.836H8.827c.045.965 0 10.284 0 10.284z" fill="#FFF"/></g></svg>