<svg width="705" height="279" viewBox="0 0 705 279" xmlns="http://www.w3.org/2000/svg"><title>Personal Logo</title><defs><filter x="-50%" y="-50%" width="200%" height="200%" filterUnits="objectBoundingBox" id="a"><feOffset dy="2" in="SourceAlpha" result="shadowOffsetOuter1"/><feGaussianBlur stdDeviation="2" in="shadowOffsetOuter1" result="shadowBlurOuter1"/><feColorMatrix values="0 0 0 0 0 0 0 0 0 0 0 0 0 0 0 0 0 0 0.35 0" in="shadowBlurOuter1" result="shadowMatrixOuter1"/><feMerge><feMergeNode in="shadowMatrixOuter1"/><feMergeNode in="SourceGraphic"/></feMerge></filter></defs><g fill="none" fill-rule="evenodd" filter="url(#a)"><path d="M19.982 187.126H5.736c-.062 4.123.688 7.685 2.25 10.684 1.562 2.999 3.67 5.467 6.326 7.403 2.655 1.937 5.717 3.359 9.184 4.265a42.276 42.276 0 0 0 10.731 1.359c4.561 0 8.576-.531 12.043-1.594 3.468-1.062 6.373-2.546 8.716-4.451 2.343-1.906 4.108-4.17 5.295-6.795 1.187-2.624 1.781-5.467 1.781-8.528 0-3.75-.797-6.826-2.39-9.232-1.593-2.405-3.483-4.327-5.67-5.764-2.187-1.437-4.39-2.483-6.607-3.14-2.218-.655-3.952-1.108-5.202-1.358a1032.235 1032.235 0 0 1-10.168-2.624c-2.593-.688-4.624-1.375-6.092-2.062-1.468-.688-2.452-1.437-2.952-2.25-.5-.812-.75-1.874-.75-3.186 0-1.437.312-2.624.937-3.561a8.14 8.14 0 0 1 2.39-2.343 9.527 9.527 0 0 1 3.233-1.312 17.244 17.244 0 0 1 3.562-.375c1.812 0 3.483.156 5.014.468 1.53.313 2.89.844 4.077 1.593 1.187.75 2.14 1.781 2.858 3.093.719 1.312 1.14 2.968 1.265 4.967h14.246c0-3.873-.734-7.17-2.203-9.887-1.468-2.718-3.452-4.952-5.95-6.701-2.5-1.75-5.359-3.015-8.576-3.796-3.218-.78-6.576-1.171-10.075-1.171-3 0-5.998.406-8.997 1.218-3 .812-5.686 2.062-8.06 3.749a19.956 19.956 0 0 0-5.764 6.326c-1.468 2.53-2.202 5.514-2.202 8.95 0 3.062.577 5.67 1.733 7.826 1.156 2.156 2.671 3.952 4.546 5.389 1.874 1.437 3.998 2.608 6.373 3.514a64.077 64.077 0 0 0 7.31 2.297 176.08 176.08 0 0 0 7.216 1.874c2.375.562 4.499 1.218 6.373 1.968 1.875.75 3.39 1.687 4.546 2.812 1.156 1.124 1.734 2.593 1.734 4.404 0 1.687-.438 3.078-1.313 4.171a9.201 9.201 0 0 1-3.28 2.577 14.674 14.674 0 0 1-4.217 1.266c-1.5.218-2.905.328-4.218.328-1.936 0-3.81-.235-5.623-.703-1.812-.469-3.39-1.187-4.733-2.156-1.343-.968-2.42-2.234-3.233-3.796-.812-1.562-1.218-3.467-1.218-5.716zm48.828-11.34c.187-3.125.968-5.718 2.343-7.78a15.955 15.955 0 0 1 5.248-4.967c2.125-1.25 4.514-2.14 7.17-2.67a40.761 40.761 0 0 1 8.013-.797c2.437 0 4.904.172 7.404.515 2.499.344 4.78 1.016 6.841 2.015 2.062 1 3.75 2.39 5.061 4.17 1.312 1.781 1.968 4.14 1.968 7.077v25.21c0 2.187.125 4.28.375 6.28.25 1.999.687 3.498 1.312 4.498H101.05c-.25-.75-.453-1.515-.61-2.296a19.994 19.994 0 0 1-.328-2.39c-2.124 2.187-4.623 3.718-7.497 4.592a30.094 30.094 0 0 1-8.81 1.313c-2.312 0-4.467-.282-6.467-.844-1.999-.562-3.748-1.437-5.248-2.624s-2.671-2.687-3.514-4.499c-.844-1.812-1.266-3.967-1.266-6.466 0-2.75.485-5.014 1.453-6.795.968-1.78 2.218-3.202 3.749-4.264 1.53-1.062 3.28-1.86 5.248-2.39a56.028 56.028 0 0 1 5.951-1.265c2-.313 3.968-.563 5.905-.75 1.937-.188 3.655-.469 5.154-.844 1.5-.375 2.687-.921 3.562-1.64.874-.718 1.28-1.765 1.218-3.14 0-1.436-.234-2.577-.703-3.42-.468-.844-1.093-1.5-1.874-1.968-.781-.469-1.687-.781-2.718-.937a22.24 22.24 0 0 0-3.327-.235c-2.624 0-4.686.563-6.186 1.687-1.5 1.125-2.374 3-2.624 5.623H68.81zm30.74 9.84c-.562.5-1.265.89-2.109 1.171-.843.282-1.75.516-2.718.703-.968.188-1.983.344-3.045.469a55.948 55.948 0 0 0-3.187.469c-1 .187-1.984.437-2.952.75-.969.312-1.812.733-2.53 1.265a6.014 6.014 0 0 0-1.734 2.015c-.438.812-.656 1.843-.656 3.092 0 1.187.218 2.187.656 3a5.03 5.03 0 0 0 1.78 1.92c.75.47 1.625.797 2.624.985 1 .187 2.031.28 3.093.28 2.624 0 4.655-.437 6.092-1.311 1.437-.875 2.5-1.921 3.187-3.14.687-1.218 1.109-2.452 1.265-3.702.156-1.25.234-2.25.234-2.999v-4.967zm23.992-24.742v48.453h13.309v-28.116c0-2.374.343-4.295 1.03-5.764.688-1.468 1.516-2.593 2.484-3.374.969-.78 1.968-1.312 3-1.593 1.03-.281 1.858-.422 2.483-.422 2.124 0 3.733.36 4.826 1.078 1.094.719 1.875 1.672 2.343 2.859.469 1.187.734 2.483.797 3.89.062 1.405.094 2.826.094 4.263v27.18h13.308v-26.992c0-1.5.11-2.984.328-4.452.219-1.468.656-2.78 1.312-3.936a7.808 7.808 0 0 1 2.718-2.812c1.156-.718 2.67-1.078 4.545-1.078s3.359.313 4.452.938c1.093.624 1.921 1.468 2.484 2.53.562 1.062.906 2.312 1.03 3.749a53.12 53.12 0 0 1 .188 4.592v27.46h13.308V176.91c0-3.124-.437-5.795-1.312-8.013s-2.093-4.014-3.655-5.389c-1.562-1.375-3.436-2.374-5.623-2.999-2.187-.625-4.561-.937-7.123-.937-3.374 0-6.295.812-8.763 2.437-2.468 1.624-4.42 3.498-5.857 5.623-1.312-3-3.234-5.092-5.764-6.28-2.53-1.187-5.326-1.78-8.388-1.78-3.186 0-6.014.687-8.482 2.062-2.468 1.374-4.576 3.311-6.326 5.81h-.187v-6.56h-12.559zm129.99 48.453v-48.453h-13.308v25.398c0 4.936-.812 8.482-2.437 10.637-1.624 2.156-4.249 3.234-7.872 3.234-3.187 0-5.405-.984-6.654-2.953-1.25-1.968-1.875-4.951-1.875-8.95v-27.366h-13.308v29.803c0 2.999.265 5.732.796 8.2.532 2.468 1.453 4.561 2.765 6.28 1.312 1.718 3.109 3.046 5.39 3.983 2.28.937 5.2 1.406 8.762 1.406 2.812 0 5.56-.625 8.247-1.875 2.687-1.25 4.874-3.28 6.56-6.092h.282v6.748h12.652zm42.736-29.428H274.62c.063-.937.266-2 .61-3.186.343-1.188.936-2.312 1.78-3.374.843-1.063 1.968-1.953 3.374-2.671 1.406-.719 3.17-1.078 5.295-1.078 3.25 0 5.67.875 7.263 2.624 1.594 1.75 2.703 4.311 3.327 7.685zm-21.649 8.435h34.958c.25-3.749-.063-7.342-.938-10.778-.874-3.436-2.296-6.498-4.264-9.185-1.968-2.686-4.483-4.826-7.544-6.42-3.062-1.593-6.654-2.39-10.778-2.39-3.686 0-7.045.657-10.075 1.969-3.03 1.312-5.639 3.108-7.826 5.389-2.186 2.28-3.873 4.983-5.06 8.107-1.188 3.124-1.781 6.498-1.781 10.121 0 3.75.578 7.186 1.734 10.31 1.156 3.124 2.796 5.81 4.92 8.06 2.124 2.249 4.717 3.983 7.779 5.201 3.061 1.218 6.498 1.828 10.309 1.828 5.498 0 10.184-1.25 14.058-3.75 3.874-2.498 6.748-6.653 8.622-12.464h-11.715c-.437 1.5-1.624 2.92-3.561 4.264-1.937 1.344-4.249 2.015-6.935 2.015-3.75 0-6.623-.968-8.623-2.905-2-1.937-3.092-5.061-3.28-9.372zm43.205-45.923v66.916h13.308v-66.916h-13.308zm51.265 0v66.916h14.714V181.69h28.022v-11.434h-28.022v-15.464h32.333v-12.371H369.09zm99.624 66.916v-48.453h-13.308v25.398c0 4.936-.812 8.482-2.437 10.637-1.624 2.156-4.248 3.234-7.872 3.234-3.187 0-5.405-.984-6.654-2.953-1.25-1.968-1.875-4.951-1.875-8.95v-27.366H423.26v29.803c0 2.999.266 5.732.797 8.2.53 2.468 1.452 4.561 2.764 6.28 1.313 1.718 3.109 3.046 5.39 3.983 2.28.937 5.2 1.406 8.762 1.406 2.812 0 5.56-.625 8.248-1.875 2.686-1.25 4.873-3.28 6.56-6.092h.281v6.748h12.652zm10.122-48.453v48.453h13.308V187.5c0-2.186.22-4.217.656-6.091.438-1.875 1.172-3.515 2.203-4.92 1.03-1.407 2.39-2.516 4.077-3.328 1.687-.812 3.748-1.218 6.185-1.218.812 0 1.656.047 2.53.14.875.094 1.625.203 2.25.328v-12.37c-1.062-.313-2.03-.47-2.905-.47-1.687 0-3.312.25-4.874.75-1.562.5-3.03 1.203-4.405 2.11-1.374.905-2.593 1.999-3.655 3.28a16.367 16.367 0 0 0-2.53 4.17h-.188v-8.997h-12.652zm36.832-18.463v66.916h13.308v-66.916h-13.308zm35.614 42.736c0-1.937.187-3.842.562-5.717.375-1.874 1.015-3.53 1.921-4.967.906-1.437 2.109-2.608 3.609-3.514 1.5-.906 3.373-1.36 5.623-1.36 2.249 0 4.139.454 5.67 1.36 1.53.906 2.749 2.077 3.655 3.514.906 1.437 1.546 3.093 1.921 4.967.375 1.875.562 3.78.562 5.717 0 1.937-.187 3.827-.562 5.67-.375 1.844-1.015 3.5-1.921 4.968a10.116 10.116 0 0 1-3.655 3.514c-1.531.875-3.421 1.312-5.67 1.312-2.25 0-4.124-.437-5.623-1.312a10.233 10.233 0 0 1-3.609-3.514c-.906-1.469-1.546-3.124-1.92-4.968a28.377 28.377 0 0 1-.563-5.67zm-13.309 0c0 3.874.594 7.373 1.781 10.497 1.187 3.124 2.874 5.795 5.061 8.013s4.811 3.92 7.873 5.108c3.061 1.187 6.497 1.78 10.309 1.78 3.811 0 7.263-.593 10.356-1.78s5.732-2.89 7.92-5.108c2.186-2.218 3.873-4.889 5.06-8.013 1.187-3.124 1.78-6.623 1.78-10.497 0-3.873-.593-7.388-1.78-10.543-1.187-3.155-2.874-5.842-5.06-8.06-2.188-2.218-4.827-3.936-7.92-5.155-3.093-1.218-6.545-1.827-10.356-1.827-3.812 0-7.248.609-10.31 1.827-3.061 1.219-5.685 2.937-7.872 5.155-2.187 2.218-3.874 4.905-5.06 8.06-1.188 3.155-1.782 6.67-1.782 10.543zm58.763-24.273v48.453h13.308V183.94c0-4.936.812-8.482 2.437-10.637 1.624-2.156 4.249-3.234 7.872-3.234 3.187 0 5.405.985 6.655 2.953s1.874 4.951 1.874 8.95v27.366h13.308v-29.803c0-2.999-.265-5.732-.796-8.2-.532-2.468-1.453-4.561-2.765-6.28-1.312-1.718-3.109-3.061-5.39-4.03-2.28-.968-5.2-1.452-8.762-1.452-2.812 0-5.56.64-8.247 1.921-2.687 1.28-4.874 3.327-6.56 6.139h-.282v-6.748h-12.652zm78.162 37.02c-2.061 0-3.78-.438-5.154-1.313-1.375-.874-2.484-2-3.327-3.374-.844-1.374-1.437-2.92-1.78-4.639a26.458 26.458 0 0 1-.516-5.201c0-1.812.203-3.546.609-5.202.406-1.655 1.062-3.124 1.968-4.405a10.15 10.15 0 0 1 3.374-3.046c1.343-.75 2.952-1.124 4.826-1.124 2.187 0 4 .406 5.436 1.218a9.703 9.703 0 0 1 3.468 3.28c.875 1.375 1.5 2.953 1.874 4.733.375 1.781.563 3.671.563 5.67 0 1.75-.235 3.421-.703 5.014-.469 1.594-1.172 3.015-2.109 4.265-.937 1.25-2.124 2.249-3.561 2.999-1.437.75-3.093 1.124-4.968 1.124zm23.993 8.34v-45.36h-12.652v6.467h-.188c-1.624-2.812-3.64-4.811-6.045-5.999-2.405-1.187-5.201-1.78-8.388-1.78-3.374 0-6.357.656-8.95 1.968-2.593 1.312-4.764 3.077-6.514 5.295-1.749 2.218-3.077 4.78-3.983 7.685a30.203 30.203 0 0 0-1.359 9.044c0 3.312.39 6.451 1.172 9.419.78 2.968 2.015 5.56 3.702 7.779 1.687 2.218 3.842 3.967 6.467 5.248 2.624 1.281 5.748 1.921 9.372 1.921 2.936 0 5.732-.609 8.388-1.827 2.655-1.219 4.701-3.109 6.138-5.67h.188v6.373c.062 3.436-.766 6.279-2.484 8.528-1.718 2.25-4.452 3.374-8.2 3.374-2.375 0-4.468-.484-6.28-1.452-1.812-.969-3.03-2.703-3.655-5.202h-13.214c.187 2.75.952 5.108 2.296 7.076a16.583 16.583 0 0 0 5.06 4.826c2.031 1.25 4.28 2.172 6.749 2.765 2.468.594 4.889.89 7.263.89 5.56 0 9.997-.75 13.308-2.249 3.312-1.5 5.842-3.327 7.591-5.482 1.75-2.156 2.89-4.483 3.421-6.982.531-2.5.797-4.718.797-6.655z" fill="#FFF"/><g stroke="#FFF"><path d="M137.85 113.145h438.39" stroke-width="2" stroke-linecap="square"/><g stroke-width="3"><path d="M365.512 84.656l-34.298-53.24-33.577 52.7 118.828-.318-50.619-79.674-26.145 39.347"/><path d="M351.962 24.635l7.646-1.831 1.356 8.127 5.561-8.777 7.119 12.522 1.167-10.041 4.62.752"/></g></g><g stroke="#FFF" stroke-width="3" stroke-linecap="square"><path d="M6.028 255.288h158.307M65.393 263.569h98.942"/></g><g stroke="#FFF" stroke-width="3" stroke-linecap="square"><path d="M698.928 255.288H540.62M639.562 263.569H540.62"/></g><path d="M218.394 264.01v-11.715h2.915c1.007 0 1.853.143 2.539.43.685.286 1.236.698 1.653 1.236.416.538.716 1.184.898 1.94.182.754.273 1.6.273 2.538 0 1.024-.13 1.891-.39 2.603-.26.712-.608 1.289-1.042 1.731-.433.443-.928.76-1.483.95a5.25 5.25 0 0 1-1.719.287h-3.644zm-4.087-15.152v18.588h8.018c1.423 0 2.66-.239 3.71-.716a7.38 7.38 0 0 0 2.629-1.965c.703-.833 1.228-1.823 1.575-2.968.347-1.146.52-2.395.52-3.749 0-1.544-.212-2.89-.637-4.035-.426-1.145-1.016-2.1-1.77-2.864a7.261 7.261 0 0 0-2.682-1.718c-1.033-.382-2.148-.573-3.345-.573h-8.018zm28.959 10.414h-6.014c.018-.26.074-.556.17-.885.095-.33.26-.643.494-.938a2.8 2.8 0 0 1 .937-.742c.391-.2.881-.299 1.471-.299.903 0 1.575.243 2.018.729.442.486.75 1.197.924 2.135zm-6.014 2.343h9.71a9.502 9.502 0 0 0-.26-2.994 7.328 7.328 0 0 0-1.184-2.551 5.975 5.975 0 0 0-2.096-1.784c-.85-.442-1.848-.663-2.994-.663-1.024 0-1.956.182-2.798.546a6.617 6.617 0 0 0-2.174 1.497 6.598 6.598 0 0 0-1.406 2.252 7.85 7.85 0 0 0-.494 2.812c0 1.04.16 1.995.481 2.863a6.503 6.503 0 0 0 1.367 2.239 5.954 5.954 0 0 0 2.16 1.445c.851.338 1.806.507 2.864.507 1.528 0 2.83-.347 3.905-1.04 1.076-.695 1.875-1.85 2.395-3.463h-3.254c-.121.416-.45.811-.989 1.184-.538.373-1.18.56-1.926.56-1.042 0-1.84-.269-2.395-.807-.556-.538-.86-1.406-.912-2.603zm20.343 5.831l4.556-13.459h-3.67l-2.839 9.19h-.052l-2.837-9.19h-3.88l4.609 13.46h4.113zm16.151-8.174h-6.013c.017-.26.073-.556.169-.885.095-.33.26-.643.494-.938a2.8 2.8 0 0 1 .938-.742c.39-.2.88-.299 1.47-.299.903 0 1.575.243 2.018.729.443.486.75 1.197.924 2.135zm-6.013 2.343h9.71a9.502 9.502 0 0 0-.26-2.994 7.328 7.328 0 0 0-1.185-2.551 5.975 5.975 0 0 0-2.096-1.784c-.85-.442-1.848-.663-2.993-.663-1.024 0-1.957.182-2.799.546a6.617 6.617 0 0 0-2.174 1.497 6.598 6.598 0 0 0-1.406 2.252 7.85 7.85 0 0 0-.494 2.812c0 1.04.16 1.995.481 2.863a6.503 6.503 0 0 0 1.367 2.239 5.954 5.954 0 0 0 2.16 1.445c.851.338 1.806.507 2.865.507 1.527 0 2.828-.347 3.905-1.04 1.076-.695 1.874-1.85 2.395-3.463h-3.255c-.121.416-.45.811-.989 1.184-.538.373-1.18.56-1.926.56-1.042 0-1.84-.269-2.395-.807-.556-.538-.86-1.406-.911-2.603zm13-12.757v18.588h3.697v-18.588h-3.696zm10.893 11.872c0-.538.052-1.068.156-1.588.105-.521.283-.981.534-1.38.252-.4.586-.725 1.002-.976.417-.252.938-.378 1.562-.378.625 0 1.15.126 1.575.378a2.96 2.96 0 0 1 1.016.976c.251.399.43.859.533 1.38a8.077 8.077 0 0 1 0 3.163 4.196 4.196 0 0 1-.533 1.38 2.81 2.81 0 0 1-1.016.976c-.425.242-.95.364-1.575.364-.624 0-1.145-.122-1.562-.364a2.842 2.842 0 0 1-1.002-.977 4.196 4.196 0 0 1-.534-1.38 7.883 7.883 0 0 1-.156-1.574zm-3.696 0c0 1.076.164 2.047.494 2.915.33.868.799 1.61 1.406 2.226a6.15 6.15 0 0 0 2.187 1.419c.85.33 1.805.494 2.863.494 1.06 0 2.018-.164 2.877-.494a6.127 6.127 0 0 0 2.2-1.419 6.325 6.325 0 0 0 1.406-2.226c.33-.868.494-1.84.494-2.915 0-1.077-.165-2.053-.494-2.93a6.303 6.303 0 0 0-1.406-2.238 6.274 6.274 0 0 0-2.2-1.432c-.859-.338-1.818-.507-2.877-.507-1.058 0-2.013.169-2.863.507a6.3 6.3 0 0 0-2.187 1.432 6.303 6.303 0 0 0-1.406 2.239c-.33.876-.494 1.852-.494 2.929zm24.117 4.295c-.59 0-1.093-.122-1.51-.364a2.925 2.925 0 0 1-1.002-.95 4.103 4.103 0 0 1-.547-1.367 7.478 7.478 0 0 1-.17-1.588c0-.556.053-1.094.157-1.614.104-.521.282-.981.534-1.38.251-.4.581-.725.989-.976.408-.252.915-.378 1.523-.378.59 0 1.089.126 1.497.378.408.251.742.58 1.002.989.26.408.447.872.56 1.393.113.52.169 1.05.169 1.588s-.052 1.067-.156 1.588c-.104.52-.282.976-.534 1.366-.252.39-.581.708-.99.95-.407.243-.915.365-1.522.365zm-6.795-11.038v18.171h3.697v-6.378h.052a4.361 4.361 0 0 0 1.731 1.497 5.24 5.24 0 0 0 2.304.507c.99 0 1.853-.19 2.59-.572a5.482 5.482 0 0 0 1.849-1.536 6.628 6.628 0 0 0 1.106-2.213 9.25 9.25 0 0 0 .365-2.603c0-.955-.122-1.87-.365-2.747a6.706 6.706 0 0 0-1.12-2.304 5.644 5.644 0 0 0-1.9-1.588c-.763-.399-1.674-.598-2.733-.598a5.27 5.27 0 0 0-2.291.494c-.694.33-1.267.86-1.718 1.588h-.052v-1.718h-3.515zm25.966 5.285h-6.014c.018-.26.074-.556.17-.885.095-.33.26-.643.494-.938a2.8 2.8 0 0 1 .937-.742c.39-.2.881-.299 1.471-.299.903 0 1.575.243 2.018.729.442.486.75 1.197.924 2.135zm-6.014 2.343h9.71a9.502 9.502 0 0 0-.26-2.994 7.328 7.328 0 0 0-1.184-2.551 5.975 5.975 0 0 0-2.096-1.784c-.85-.442-1.848-.663-2.994-.663-1.024 0-1.956.182-2.798.546a6.617 6.617 0 0 0-2.174 1.497 6.598 6.598 0 0 0-1.406 2.252 7.85 7.85 0 0 0-.494 2.812c0 1.04.16 1.995.481 2.863a6.503 6.503 0 0 0 1.367 2.239 5.954 5.954 0 0 0 2.16 1.445c.851.338 1.806.507 2.864.507 1.528 0 2.83-.347 3.905-1.04 1.076-.695 1.875-1.85 2.395-3.463h-3.254c-.121.416-.451.811-.99 1.184-.537.373-1.18.56-1.925.56-1.042 0-1.84-.269-2.396-.807-.555-.538-.859-1.406-.91-2.603zm12.897-7.628v13.46h3.697v-6.067c0-.607.06-1.171.182-1.692.122-.52.326-.976.612-1.367.286-.39.664-.698 1.133-.924.468-.225 1.04-.338 1.718-.338.225 0 .46.013.703.039a7.1 7.1 0 0 1 .624.091v-3.436a2.883 2.883 0 0 0-.807-.13c-.468 0-.92.069-1.353.208a4.96 4.96 0 0 0-1.224.586c-.382.251-.72.555-1.015.91-.295.356-.53.743-.703 1.16h-.052v-2.5H338.1zm19.469-7.003v26.007h2.785v-26.007h-2.785zm19.416 17.026v-11.715h2.915c1.007 0 1.853.143 2.539.43.685.286 1.236.698 1.653 1.236.416.538.716 1.184.898 1.94.182.754.273 1.6.273 2.538 0 1.024-.13 1.891-.39 2.603-.26.712-.608 1.289-1.042 1.731-.434.443-.928.76-1.484.95a5.25 5.25 0 0 1-1.718.287h-3.644zm-4.088-15.152v18.588h8.019c1.423 0 2.66-.239 3.71-.716a7.38 7.38 0 0 0 2.629-1.965c.703-.833 1.228-1.823 1.575-2.968.347-1.146.52-2.395.52-3.749 0-1.544-.212-2.89-.638-4.035-.425-1.145-1.015-2.1-1.77-2.864a7.261 7.261 0 0 0-2.681-1.718c-1.033-.382-2.148-.573-3.345-.573h-8.019zm28.96 10.414h-6.014c.018-.26.074-.556.17-.885.095-.33.26-.643.494-.938a2.8 2.8 0 0 1 .937-.742c.39-.2.881-.299 1.471-.299.903 0 1.575.243 2.018.729.442.486.75 1.197.924 2.135zm-6.014 2.343h9.71a9.502 9.502 0 0 0-.26-2.994 7.328 7.328 0 0 0-1.184-2.551 5.975 5.975 0 0 0-2.096-1.784c-.85-.442-1.848-.663-2.994-.663-1.024 0-1.957.182-2.798.546a6.617 6.617 0 0 0-2.174 1.497 6.598 6.598 0 0 0-1.406 2.252 7.85 7.85 0 0 0-.494 2.812c0 1.04.16 1.995.481 2.863a6.503 6.503 0 0 0 1.367 2.239 5.954 5.954 0 0 0 2.16 1.445c.851.338 1.806.507 2.864.507 1.528 0 2.83-.347 3.905-1.04 1.076-.695 1.875-1.85 2.395-3.463h-3.254c-.121.416-.451.811-.99 1.184-.537.373-1.18.56-1.926.56-1.04 0-1.84-.269-2.395-.807-.555-.538-.859-1.406-.91-2.603zm15.761 1.458h-3.514c.034.902.238 1.653.611 2.251.373.6.85 1.08 1.432 1.445a6.047 6.047 0 0 0 1.992.781 11.454 11.454 0 0 0 4.543.013 5.709 5.709 0 0 0 1.965-.768 4.27 4.27 0 0 0 1.393-1.445c.355-.598.533-1.34.533-2.225 0-.625-.121-1.15-.364-1.575a3.336 3.336 0 0 0-.963-1.068 5.181 5.181 0 0 0-1.367-.69 15.616 15.616 0 0 0-1.575-.442 62.394 62.394 0 0 0-1.536-.339c-.503-.104-.95-.22-1.34-.351-.391-.13-.708-.3-.951-.508a1.014 1.014 0 0 1-.364-.807c0-.277.069-.499.208-.664.139-.164.308-.29.507-.377.2-.087.421-.143.664-.17.243-.025.469-.038.677-.038.66 0 1.232.125 1.718.377s.755.733.807 1.445h3.515c-.07-.833-.282-1.523-.638-2.07a4.213 4.213 0 0 0-1.34-1.314 5.612 5.612 0 0 0-1.836-.703 10.663 10.663 0 0 0-2.122-.208c-.729 0-1.44.065-2.134.195a5.878 5.878 0 0 0-1.875.677 3.742 3.742 0 0 0-1.34 1.314c-.339.556-.508 1.267-.508 2.135 0 .59.121 1.09.364 1.497.243.408.564.746.964 1.015.399.27.854.486 1.366.651.512.165 1.037.308 1.575.43 1.32.277 2.348.555 3.085.833.738.277 1.107.694 1.107 1.25 0 .329-.078.602-.235.82-.156.216-.351.39-.585.52a2.79 2.79 0 0 1-.781.286c-.287.061-.56.091-.82.091-.365 0-.716-.043-1.055-.13a2.735 2.735 0 0 1-.898-.403 2.16 2.16 0 0 1-.638-.703c-.165-.287-.247-.63-.247-1.028zm15.917-11.169v-3.046h-3.697v3.046h3.697zm-3.697 2.083v13.46h3.697v-13.46h-3.697zm13.887 10.283c-.573 0-1.05-.121-1.432-.364a2.89 2.89 0 0 1-.924-.938 3.905 3.905 0 0 1-.495-1.288 7.35 7.35 0 0 1-.143-1.445c0-.503.056-.985.169-1.445.113-.46.295-.868.547-1.223a2.82 2.82 0 0 1 .937-.847c.373-.208.82-.312 1.34-.312.608 0 1.111.113 1.51.338.4.226.72.53.964.912.243.381.416.82.52 1.314.104.495.157 1.02.157 1.575 0 .486-.066.95-.196 1.393a3.69 3.69 0 0 1-.585 1.185c-.26.347-.59.624-.99.833-.399.208-.859.312-1.38.312zm6.664 2.317v-12.6h-3.514v1.796h-.053c-.45-.78-1.01-1.336-1.679-1.666-.668-.33-1.445-.494-2.33-.494-.937 0-1.766.182-2.486.546a5.347 5.347 0 0 0-1.81 1.471 6.566 6.566 0 0 0-1.105 2.135 8.39 8.39 0 0 0-.378 2.512c0 .92.109 1.792.325 2.616.217.825.56 1.545 1.029 2.161a4.94 4.94 0 0 0 1.796 1.458c.729.356 1.597.534 2.603.534.816 0 1.593-.17 2.33-.508a3.66 3.66 0 0 0 1.705-1.575h.053v1.77c.017.955-.213 1.744-.69 2.37-.478.624-1.237.936-2.278.936-.66 0-1.241-.134-1.744-.403-.504-.27-.842-.75-1.016-1.445h-3.67c.052.764.264 1.419.637 1.965.374.547.842.994 1.406 1.341a6.41 6.41 0 0 0 1.875.768 8.61 8.61 0 0 0 2.017.247c1.545 0 2.777-.208 3.697-.624.92-.417 1.623-.924 2.108-1.523a4.558 4.558 0 0 0 .95-1.94c.148-.694.222-1.31.222-1.848zm3.968-12.6v13.46h3.696v-7.056c0-1.371.226-2.356.677-2.955.452-.598 1.18-.898 2.187-.898.885 0 1.501.274 1.848.82.347.547.521 1.376.521 2.486v7.602h3.697v-8.278c0-.834-.074-1.593-.222-2.278-.147-.686-.403-1.267-.768-1.745-.364-.477-.863-.85-1.496-1.119-.634-.269-1.445-.403-2.435-.403a5.27 5.27 0 0 0-2.29.533c-.747.356-1.354.924-1.823 1.705h-.078v-1.874h-3.514zm25.497 5.285h-6.014c.018-.26.074-.556.17-.885.095-.33.26-.643.494-.938a2.8 2.8 0 0 1 .937-.742c.39-.2.881-.299 1.471-.299.903 0 1.575.243 2.018.729.442.486.75 1.197.924 2.135zm-6.014 2.343h9.71a9.502 9.502 0 0 0-.26-2.994 7.328 7.328 0 0 0-1.184-2.551 5.975 5.975 0 0 0-2.096-1.784c-.85-.442-1.848-.663-2.994-.663-1.024 0-1.957.182-2.798.546a6.617 6.617 0 0 0-2.174 1.497 6.598 6.598 0 0 0-1.406 2.252 7.85 7.85 0 0 0-.495 2.812c0 1.04.161 1.995.482 2.863a6.503 6.503 0 0 0 1.367 2.239 5.954 5.954 0 0 0 2.16 1.445c.851.338 1.806.507 2.864.507 1.527 0 2.83-.347 3.905-1.04 1.076-.695 1.875-1.85 2.395-3.463h-3.254c-.121.416-.451.811-.99 1.184-.537.373-1.18.56-1.926.56-1.041 0-1.84-.269-2.395-.807-.555-.538-.859-1.406-.91-2.603zm12.897-7.628v13.46h3.697v-6.067c0-.607.06-1.171.182-1.692.122-.52.326-.976.612-1.367.286-.39.664-.698 1.132-.924.469-.225 1.042-.338 1.719-.338.225 0 .46.013.702.039a7.1 7.1 0 0 1 .625.091v-3.436a2.883 2.883 0 0 0-.807-.13c-.468 0-.92.069-1.354.208a4.96 4.96 0 0 0-1.223.586c-.382.251-.72.555-1.015.91-.295.356-.53.743-.703 1.16h-.052v-2.5h-3.515z" fill="#FFF"/></g></svg>