<svg width="826" height="274" viewBox="0 0 826 274" xmlns="http://www.w3.org/2000/svg"><title>Personal Logo Lg Export Case Path</title><g fill="none" fill-rule="evenodd"><path d="M209.721 160.914h14.246c-.438-3.874-1.5-7.31-3.187-10.31-1.687-2.998-3.827-5.513-6.42-7.544-2.593-2.03-5.53-3.577-8.81-4.639-3.28-1.062-6.763-1.593-10.45-1.593-5.123 0-9.73.906-13.823 2.718-4.092 1.812-7.544 4.31-10.356 7.497-2.812 3.187-4.967 6.92-6.467 11.2-1.5 4.28-2.249 8.919-2.249 13.917 0 4.874.75 9.42 2.25 13.637 1.499 4.217 3.654 7.888 6.466 11.012 2.812 3.124 6.264 5.576 10.356 7.357 4.093 1.78 8.7 2.67 13.824 2.67 4.124 0 7.904-.624 11.34-1.874s6.435-3.061 8.997-5.435c2.562-2.375 4.624-5.249 6.186-8.623 1.562-3.374 2.53-7.154 2.905-11.34h-14.245c-.563 4.499-2.11 8.123-4.64 10.872-2.53 2.749-6.045 4.123-10.543 4.123-3.312 0-6.123-.64-8.435-1.92-2.312-1.282-4.186-2.984-5.623-5.109-1.437-2.124-2.484-4.514-3.14-7.17a34.064 34.064 0 0 1-.984-8.2c0-2.936.328-5.78.984-8.528.656-2.75 1.703-5.202 3.14-7.357 1.437-2.156 3.311-3.874 5.623-5.155 2.312-1.28 5.123-1.921 8.435-1.921 1.812 0 3.546.297 5.201.89a15.128 15.128 0 0 1 4.452 2.484 14.79 14.79 0 0 1 3.28 3.702 12.015 12.015 0 0 1 1.687 4.639zm22.868 10.871c.187-3.124.968-5.717 2.343-7.778a15.955 15.955 0 0 1 5.248-4.968c2.125-1.25 4.514-2.14 7.17-2.67a40.761 40.761 0 0 1 8.013-.797c2.437 0 4.905.172 7.404.515 2.499.344 4.78 1.016 6.841 2.015 2.062 1 3.75 2.39 5.061 4.17 1.312 1.781 1.968 4.14 1.968 7.077v25.21c0 2.187.125 4.28.375 6.28.25 1.999.687 3.498 1.312 4.498H264.83c-.25-.75-.453-1.515-.61-2.296a19.994 19.994 0 0 1-.328-2.39c-2.124 2.187-4.623 3.718-7.497 4.592a30.094 30.094 0 0 1-8.81 1.313c-2.312 0-4.467-.282-6.467-.844-1.999-.562-3.748-1.437-5.248-2.624s-2.67-2.687-3.514-4.499c-.844-1.812-1.266-3.967-1.266-6.466 0-2.75.485-5.014 1.453-6.795.968-1.78 2.218-3.202 3.749-4.264 1.53-1.062 3.28-1.86 5.248-2.39a56.028 56.028 0 0 1 5.951-1.265c2-.313 3.968-.563 5.905-.75 1.937-.188 3.655-.469 5.154-.844 1.5-.375 2.687-.921 3.562-1.64.874-.718 1.28-1.765 1.218-3.14 0-1.436-.234-2.577-.703-3.42-.468-.844-1.093-1.5-1.874-1.968-.781-.469-1.687-.781-2.718-.937a22.24 22.24 0 0 0-3.327-.235c-2.624 0-4.686.563-6.186 1.687-1.5 1.125-2.374 3-2.624 5.623H232.59zm30.74 9.841c-.562.5-1.265.89-2.109 1.171-.843.282-1.75.516-2.718.703-.968.188-1.983.344-3.045.469a55.948 55.948 0 0 0-3.187.469c-1 .187-1.984.437-2.952.75-.969.312-1.812.733-2.53 1.265a6.014 6.014 0 0 0-1.734 2.015c-.438.812-.656 1.843-.656 3.092 0 1.187.218 2.187.656 3a5.03 5.03 0 0 0 1.78 1.92c.75.47 1.625.797 2.624.985 1 .187 2.031.28 3.093.28 2.624 0 4.655-.437 6.092-1.311 1.437-.875 2.5-1.921 3.187-3.14.687-1.218 1.109-2.452 1.265-3.702.156-1.25.234-2.25.234-2.999v-4.967zm33.927 7.966h-12.652c.124 3.25.859 5.951 2.202 8.107 1.343 2.156 3.061 3.89 5.155 5.201 2.093 1.313 4.482 2.25 7.17 2.812a40.15 40.15 0 0 0 8.246.844c2.75 0 5.452-.266 8.107-.797 2.656-.531 5.014-1.453 7.076-2.765 2.062-1.312 3.733-3.046 5.014-5.201 1.281-2.156 1.921-4.827 1.921-8.013 0-2.25-.437-4.14-1.312-5.67a12.01 12.01 0 0 0-3.467-3.843c-1.437-1.03-3.077-1.859-4.92-2.484a56.22 56.22 0 0 0-5.67-1.593 224.621 224.621 0 0 0-5.53-1.218c-1.812-.375-3.42-.797-4.827-1.265-1.406-.469-2.546-1.078-3.42-1.828-.875-.75-1.313-1.718-1.313-2.905 0-1 .25-1.797.75-2.39a4.922 4.922 0 0 1 1.828-1.359 8.134 8.134 0 0 1 2.39-.61c.874-.093 1.687-.14 2.436-.14 2.375 0 4.436.453 6.186 1.36 1.75.905 2.718 2.639 2.905 5.2h12.652c-.25-2.998-1.015-5.482-2.296-7.45-1.28-1.968-2.89-3.546-4.826-4.733-1.937-1.187-4.14-2.03-6.608-2.53s-5.014-.75-7.638-.75c-2.624 0-5.186.234-7.685.703-2.5.468-4.748 1.28-6.748 2.436a13.471 13.471 0 0 0-4.826 4.733c-1.219 2-1.828 4.561-1.828 7.685 0 2.125.438 3.921 1.312 5.39a11.393 11.393 0 0 0 3.468 3.654c1.437.969 3.077 1.75 4.92 2.343a65.689 65.689 0 0 0 5.67 1.547c4.749 1 8.45 2 11.106 2.999 2.655 1 3.983 2.499 3.983 4.498 0 1.187-.281 2.171-.843 2.952a6.392 6.392 0 0 1-2.109 1.875c-.843.469-1.78.812-2.812 1.03-1.03.22-2.015.329-2.952.329-1.312 0-2.577-.156-3.795-.469-1.219-.312-2.297-.796-3.234-1.452a7.78 7.78 0 0 1-2.296-2.53c-.594-1.032-.89-2.266-.89-3.703zm72.633-13.683h-21.65c.063-.937.266-2 .61-3.186.343-1.188.937-2.312 1.78-3.374.844-1.063 1.968-1.953 3.374-2.671 1.406-.719 3.171-1.078 5.295-1.078 3.25 0 5.67.875 7.264 2.624 1.593 1.75 2.702 4.311 3.327 7.685zm-21.65 8.435h34.958c.25-3.749-.062-7.342-.937-10.778-.875-3.436-2.296-6.498-4.264-9.185-1.969-2.686-4.483-4.826-7.545-6.42-3.061-1.593-6.654-2.39-10.778-2.39-3.686 0-7.044.657-10.075 1.969-3.03 1.312-5.638 3.108-7.825 5.389-2.187 2.28-3.874 4.983-5.061 8.107-1.187 3.124-1.78 6.498-1.78 10.121 0 3.75.577 7.186 1.733 10.31 1.156 3.124 2.796 5.81 4.92 8.06 2.125 2.249 4.718 3.983 7.78 5.201 3.06 1.218 6.497 1.828 10.308 1.828 5.499 0 10.185-1.25 14.058-3.75 3.874-2.498 6.748-6.653 8.623-12.464h-11.715c-.438 1.5-1.625 2.92-3.562 4.264-1.937 1.344-4.248 2.015-6.935 2.015-3.749 0-6.623-.968-8.622-2.905-2-1.937-3.093-5.061-3.28-9.372zm80.319-1.218h-14.246c-.062 4.123.687 7.685 2.25 10.684 1.561 2.999 3.67 5.467 6.325 7.403 2.656 1.937 5.717 3.359 9.185 4.265a42.276 42.276 0 0 0 10.731 1.359c4.561 0 8.575-.531 12.043-1.594 3.468-1.062 6.373-2.546 8.716-4.451 2.343-1.906 4.108-4.17 5.295-6.795 1.187-2.624 1.78-5.467 1.78-8.528 0-3.75-.796-6.826-2.389-9.232-1.593-2.405-3.483-4.327-5.67-5.764-2.187-1.437-4.39-2.483-6.607-3.14-2.218-.655-3.952-1.108-5.202-1.358a1032.235 1032.235 0 0 1-10.168-2.624c-2.593-.688-4.624-1.375-6.092-2.062-1.469-.688-2.453-1.437-2.952-2.25-.5-.812-.75-1.874-.75-3.186 0-1.437.312-2.624.937-3.561a8.14 8.14 0 0 1 2.39-2.343 9.527 9.527 0 0 1 3.233-1.312 17.244 17.244 0 0 1 3.562-.375c1.812 0 3.483.156 5.014.468 1.53.313 2.89.844 4.076 1.593 1.188.75 2.14 1.781 2.859 3.093.718 1.312 1.14 2.968 1.265 4.967h14.246c0-3.873-.735-7.17-2.203-9.887-1.468-2.718-3.452-4.952-5.951-6.701-2.5-1.75-5.358-3.015-8.575-3.796-3.218-.78-6.576-1.171-10.075-1.171-3 0-5.998.406-8.998 1.218-2.999.812-5.685 2.062-8.06 3.749a19.956 19.956 0 0 0-5.763 6.326c-1.469 2.53-2.203 5.514-2.203 8.95 0 3.062.578 5.67 1.734 7.826 1.156 2.156 2.671 3.952 4.546 5.389 1.874 1.437 3.998 2.608 6.373 3.514a64.077 64.077 0 0 0 7.31 2.297 176.08 176.08 0 0 0 7.216 1.874c2.374.562 4.499 1.218 6.373 1.968 1.875.75 3.39 1.687 4.546 2.812 1.155 1.124 1.733 2.593 1.733 4.404 0 1.687-.437 3.078-1.312 4.171a9.201 9.201 0 0 1-3.28 2.577 14.674 14.674 0 0 1-4.217 1.266c-1.5.218-2.906.328-4.218.328-1.937 0-3.811-.235-5.623-.703-1.812-.469-3.39-1.187-4.733-2.156-1.343-.968-2.42-2.234-3.233-3.796-.812-1.562-1.218-3.467-1.218-5.716zm66.26-26.242v-14.527h-13.309v14.527h-8.06v8.903h8.06v28.585c0 2.437.406 4.405 1.219 5.904.812 1.5 1.921 2.656 3.327 3.468 1.406.812 3.03 1.359 4.873 1.64a38.85 38.85 0 0 0 5.858.422c1.312 0 2.655-.031 4.03-.094a31.668 31.668 0 0 0 3.749-.375v-10.309c-.625.125-1.281.219-1.969.281-.687.063-1.405.094-2.155.094-2.25 0-3.749-.375-4.499-1.125-.75-.75-1.124-2.25-1.124-4.498v-23.993h9.747v-8.903h-9.747zm61.574 48.453v-48.453h-13.309v25.398c0 4.936-.812 8.482-2.436 10.637-1.625 2.156-4.249 3.234-7.873 3.234-3.186 0-5.404-.984-6.654-2.953-1.25-1.968-1.874-4.951-1.874-8.95v-27.366h-13.309v29.803c0 2.999.266 5.732.797 8.2.531 2.468 1.453 4.561 2.765 6.28 1.312 1.718 3.108 3.046 5.389 3.983 2.28.937 5.201 1.406 8.763 1.406 2.811 0 5.56-.625 8.247-1.875 2.687-1.25 4.873-3.28 6.56-6.092h.281v6.748h12.653zm44.517-24.367c0 2-.188 3.936-.563 5.81-.374 1.875-1 3.546-1.874 5.015a9.967 9.967 0 0 1-3.514 3.514c-1.469.875-3.296 1.312-5.483 1.312-2.062 0-3.827-.453-5.295-1.359a11.691 11.691 0 0 1-3.655-3.561c-.969-1.468-1.672-3.14-2.11-5.014a24.673 24.673 0 0 1-.655-5.623c0-2 .203-3.92.61-5.764.405-1.843 1.061-3.483 1.967-4.92a10.374 10.374 0 0 1 3.608-3.468c1.5-.875 3.343-1.312 5.53-1.312 2.187 0 3.999.437 5.436 1.312a10.817 10.817 0 0 1 3.514 3.42c.906 1.407 1.547 3.031 1.921 4.874.375 1.843.563 3.765.563 5.764zm.187 18.182v6.185h12.652v-66.916H600.44v24.367h-.187c-1.5-2.374-3.546-4.17-6.139-5.389a19.053 19.053 0 0 0-8.2-1.827c-3.562 0-6.686.703-9.372 2.109-2.687 1.405-4.92 3.264-6.701 5.576-1.781 2.312-3.124 4.983-4.03 8.013a32.705 32.705 0 0 0-1.36 9.419c0 3.374.454 6.623 1.36 9.747.906 3.124 2.249 5.888 4.03 8.294 1.78 2.405 4.045 4.311 6.794 5.717 2.75 1.406 5.936 2.109 9.56 2.109 3.186 0 6.045-.578 8.575-1.734 2.53-1.156 4.577-3.046 6.139-5.67h.187zm46.579 12.183l20.244-54.451h-13.777l-10.59 33.177h-.188l-10.965-33.177h-14.152l16.963 45.454a8 8 0 0 1 .563 3c0 1.436-.422 2.748-1.266 3.935-.843 1.188-2.14 1.875-3.889 2.062a27.612 27.612 0 0 1-3.936-.093c-1.312-.125-2.593-.25-3.843-.375v10.965c1.375.125 2.734.234 4.077.328s2.702.14 4.077.14c4.56 0 8.122-.843 10.684-2.53 2.562-1.687 4.561-4.498 5.998-8.435z" fill="#FFF"/><g stroke="#FFF"><path d="M196.85 109.145h438.39" stroke-width="2" stroke-linecap="square"/><g stroke-width="3"><path d="M424.512 80.656l-34.298-53.24-33.577 52.7 118.828-.318L424.846.124l-26.145 39.347"/><path d="M410.962 20.635l7.646-1.831 1.356 8.127 5.561-8.777 7.119 12.522 1.167-10.041 4.62.752"/></g></g><g stroke="#FFF" stroke-width="3" stroke-linecap="square"><path d="M65.028 251.288h158.307M124.393 259.569h98.942"/></g><g stroke="#FFF" stroke-width="3" stroke-linecap="square"><path d="M757.928 251.288H599.62M698.562 259.569H599.62"/></g><path d="M291.96 255.382v-4.347h3.827c.364 0 .716.03 1.054.09.339.061.638.17.898.326s.469.373.625.65c.156.279.234.634.234 1.068 0 .781-.234 1.345-.702 1.692-.469.347-1.068.521-1.797.521h-4.139zm-4.087-7.524v18.588h9.007c.833 0 1.645-.104 2.434-.312a6.509 6.509 0 0 0 2.11-.964 4.744 4.744 0 0 0 1.47-1.679c.364-.685.547-1.497.547-2.434 0-1.163-.282-2.156-.846-2.98-.564-.825-1.42-1.402-2.565-1.732.833-.399 1.462-.91 1.888-1.536.425-.624.638-1.405.638-2.343 0-.867-.144-1.596-.43-2.186a3.572 3.572 0 0 0-1.21-1.42c-.521-.355-1.146-.611-1.875-.767a11.576 11.576 0 0 0-2.421-.235h-8.747zm4.087 15.412v-5.102h4.452c.885 0 1.596.203 2.134.611.538.408.807 1.09.807 2.044 0 .486-.082.885-.247 1.197-.165.313-.386.56-.664.742a2.81 2.81 0 0 1-.963.39 5.454 5.454 0 0 1-1.145.118h-4.374zm21.488 4.842l5.623-15.125h-3.827l-2.941 9.216h-.052l-3.046-9.216h-3.931l4.712 12.626c.104.26.156.538.156.833 0 .4-.117.764-.352 1.093-.234.33-.594.521-1.08.573a7.67 7.67 0 0 1-1.093-.026l-1.068-.104v3.046c.382.035.76.065 1.133.091.373.026.75.039 1.132.039 1.267 0 2.256-.234 2.968-.703.712-.468 1.267-1.25 1.666-2.343zm19.286-7.836h-3.957c-.017 1.146.19 2.135.625 2.968a5.851 5.851 0 0 0 1.757 2.057 7.497 7.497 0 0 0 2.551 1.184c.963.252 1.957.378 2.981.378 1.267 0 2.382-.148 3.345-.443.963-.295 1.77-.707 2.421-1.237a5.147 5.147 0 0 0 1.471-1.887 5.68 5.68 0 0 0 .495-2.369c0-1.041-.221-1.896-.664-2.564a5.545 5.545 0 0 0-1.575-1.601c-.607-.4-1.22-.69-1.835-.872a17.693 17.693 0 0 0-1.445-.378 286.732 286.732 0 0 1-2.825-.729c-.72-.19-1.284-.382-1.692-.572-.408-.191-.681-.4-.82-.625-.139-.226-.208-.52-.208-.885 0-.4.087-.73.26-.99a2.26 2.26 0 0 1 .664-.65c.269-.174.568-.295.898-.365.33-.07.66-.104.99-.104.503 0 .967.043 1.392.13.425.087.803.234 1.133.443a2.3 2.3 0 0 1 .794.859c.2.364.316.824.351 1.38h3.957c0-1.077-.204-1.992-.612-2.747a5.333 5.333 0 0 0-1.653-1.861 6.98 6.98 0 0 0-2.382-1.055 11.825 11.825 0 0 0-2.798-.325c-.834 0-1.667.113-2.5.338a6.977 6.977 0 0 0-2.238 1.042 5.543 5.543 0 0 0-1.601 1.757c-.408.703-.612 1.532-.612 2.486 0 .85.16 1.575.481 2.174a4.597 4.597 0 0 0 1.263 1.497c.52.399 1.11.724 1.77.976.66.252 1.337.464 2.03.638.678.19 1.346.364 2.005.52.66.157 1.25.339 1.77.547.521.208.942.469 1.263.781.321.312.482.72.482 1.224 0 .468-.122.854-.365 1.158a2.556 2.556 0 0 1-.91.716c-.365.174-.756.29-1.172.351-.417.061-.807.092-1.172.092a6.213 6.213 0 0 1-1.562-.196 3.888 3.888 0 0 1-1.314-.598 2.957 2.957 0 0 1-.899-1.055c-.225-.434-.338-.963-.338-1.588zm14.563-3.15c.052-.868.27-1.588.651-2.16a4.432 4.432 0 0 1 1.458-1.38 6.353 6.353 0 0 1 1.991-.742c.738-.148 1.48-.221 2.226-.221.677 0 1.363.047 2.057.143a6.291 6.291 0 0 1 1.9.56 3.745 3.745 0 0 1 1.406 1.158c.364.495.547 1.15.547 1.965v7.003c0 .608.034 1.19.104 1.744.07.556.19.972.364 1.25h-3.748a5.305 5.305 0 0 1-.26-1.302 4.817 4.817 0 0 1-2.083 1.276 8.36 8.36 0 0 1-2.448.364c-.642 0-1.24-.078-1.796-.234a4.114 4.114 0 0 1-1.458-.729 3.393 3.393 0 0 1-.976-1.25c-.234-.503-.351-1.101-.351-1.796 0-.763.134-1.392.403-1.887.27-.495.616-.89 1.041-1.184a4.666 4.666 0 0 1 1.458-.664 15.563 15.563 0 0 1 1.653-.352 28.256 28.256 0 0 1 1.64-.208 9.863 9.863 0 0 0 1.432-.234c.417-.104.747-.256.99-.456s.355-.49.338-.872c0-.4-.065-.716-.195-.95a1.436 1.436 0 0 0-.52-.547 2.048 2.048 0 0 0-.756-.26 6.178 6.178 0 0 0-.924-.065c-.729 0-1.302.156-1.718.468-.417.313-.66.833-.73 1.562h-3.696zm8.539 2.734a1.658 1.658 0 0 1-.586.325 5.982 5.982 0 0 1-.755.195c-.269.052-.55.096-.846.13-.295.035-.59.079-.885.13a6.676 6.676 0 0 0-.82.209 2.425 2.425 0 0 0-.703.351c-.2.148-.36.334-.481.56-.122.226-.183.512-.183.86 0 .329.061.607.183.832.121.226.286.404.494.534.208.13.451.221.73.273.277.052.563.078.858.078.73 0 1.293-.121 1.692-.364.4-.243.695-.534.885-.872.191-.339.309-.681.352-1.028.043-.348.065-.625.065-.834v-1.38zm7.664-6.873v13.459h3.697v-7.81c0-.66.096-1.193.286-1.6.191-.409.421-.721.69-.938a2.29 2.29 0 0 1 .833-.443 2.77 2.77 0 0 1 .69-.117c.59 0 1.037.1 1.341.3.304.2.52.464.65.794.131.33.205.69.222 1.08.017.39.026.785.026 1.184v7.55h3.697v-7.497c0-.417.03-.83.09-1.237.062-.408.183-.772.365-1.093.183-.321.434-.582.755-.781.321-.2.742-.3 1.263-.3.52 0 .933.087 1.237.26.303.174.533.408.69.703.156.295.251.643.286 1.042.034.399.052.824.052 1.275v7.628h3.697v-9.007c0-.868-.122-1.61-.365-2.226-.243-.616-.581-1.115-1.015-1.497a3.983 3.983 0 0 0-1.562-.833 7.178 7.178 0 0 0-1.979-.26c-.937 0-1.748.225-2.434.676-.685.452-1.228.972-1.627 1.562-.364-.833-.898-1.414-1.6-1.744-.704-.33-1.48-.494-2.33-.494-.886 0-1.671.19-2.357.572a5.264 5.264 0 0 0-1.757 1.614h-.052v-1.822H363.5zm37.108 13.459v-13.459h-3.696v7.055c0 1.371-.226 2.356-.677 2.955-.452.598-1.18.898-2.187.898-.885 0-1.501-.274-1.848-.82-.348-.547-.521-1.376-.521-2.486v-7.602h-3.697v8.278c0 .834.074 1.593.221 2.278.148.686.404 1.267.768 1.745.365.477.864.846 1.497 1.106.634.26 1.445.39 2.434.39.781 0 1.545-.173 2.291-.52.747-.347 1.354-.911 1.823-1.692h.078v1.874h3.514zm12.871-8.174h-6.013c.017-.26.073-.556.169-.885.095-.33.26-.643.494-.938a2.8 2.8 0 0 1 .938-.742c.39-.2.88-.299 1.47-.299.903 0 1.576.243 2.018.729.443.486.75 1.197.924 2.135zm-6.013 2.343h9.71a9.502 9.502 0 0 0-.26-2.994 7.328 7.328 0 0 0-1.185-2.551 5.975 5.975 0 0 0-2.096-1.784c-.85-.442-1.848-.663-2.993-.663-1.024 0-1.957.182-2.799.546a6.617 6.617 0 0 0-2.174 1.497 6.598 6.598 0 0 0-1.405 2.252 7.85 7.85 0 0 0-.495 2.812c0 1.04.16 1.995.482 2.863a6.503 6.503 0 0 0 1.366 2.239 5.954 5.954 0 0 0 2.161 1.445c.85.338 1.805.507 2.864.507 1.527 0 2.829-.347 3.905-1.04 1.076-.695 1.874-1.85 2.395-3.463h-3.254c-.122.416-.452.811-.99 1.184-.538.373-1.18.56-1.926.56-1.042 0-1.84-.269-2.395-.807-.556-.538-.86-1.406-.911-2.603zm13-12.757v18.588h3.698v-18.588h-3.697zm16.24 0v18.588h4.088v-7.68h7.784v-3.176h-7.784v-4.295h8.981v-3.437h-13.068zm28.674 18.588v-13.459h-3.697v7.055c0 1.371-.225 2.356-.677 2.955-.45.598-1.18.898-2.186.898-.885 0-1.502-.274-1.849-.82-.347-.547-.52-1.376-.52-2.486v-7.602h-3.697v8.278c0 .834.074 1.593.221 2.278.148.686.404 1.267.768 1.745.365.477.864.846 1.497 1.106.634.26 1.445.39 2.434.39.781 0 1.545-.173 2.291-.52.746-.347 1.354-.911 1.822-1.692h.079v1.874h3.514zm3.812-13.459v13.459h3.696v-6.066c0-.607.061-1.171.182-1.692.122-.52.326-.976.612-1.367.287-.39.664-.698 1.133-.924.468-.225 1.041-.338 1.718-.338.225 0 .46.013.703.039a7.1 7.1 0 0 1 .625.091v-3.436a2.883 2.883 0 0 0-.807-.13c-.47 0-.92.069-1.354.208a4.96 4.96 0 0 0-1.224.586c-.382.251-.72.555-1.015.91-.295.356-.53.743-.703 1.16h-.052v-2.5h-3.514zm11.23-5.129v18.588h3.697v-18.588h-3.696zm10.893 11.872c0-.538.052-1.068.156-1.588.104-.521.282-.981.534-1.38.252-.4.586-.725 1.002-.976.417-.252.937-.378 1.562-.378s1.15.126 1.575.378a2.96 2.96 0 0 1 1.015.976c.252.399.43.859.534 1.38a8.077 8.077 0 0 1 0 3.163 4.196 4.196 0 0 1-.534 1.38 2.81 2.81 0 0 1-1.015.976c-.425.242-.95.364-1.575.364s-1.145-.122-1.562-.364a2.842 2.842 0 0 1-1.002-.977 4.196 4.196 0 0 1-.534-1.38 7.882 7.882 0 0 1-.156-1.574zm-3.697 0c0 1.076.165 2.047.495 2.915.33.868.798 1.61 1.406 2.226a6.15 6.15 0 0 0 2.187 1.419c.85.33 1.804.494 2.863.494s2.018-.164 2.877-.494a6.127 6.127 0 0 0 2.2-1.419 6.325 6.325 0 0 0 1.405-2.226c.33-.868.495-1.84.495-2.915 0-1.077-.165-2.053-.495-2.93a6.303 6.303 0 0 0-1.405-2.238 6.274 6.274 0 0 0-2.2-1.432c-.86-.338-1.818-.507-2.877-.507-1.059 0-2.013.169-2.863.507a6.3 6.3 0 0 0-2.187 1.432 6.303 6.303 0 0 0-1.406 2.239c-.33.876-.495 1.852-.495 2.929zm17.323-6.743v13.459h3.697v-7.055c0-1.371.225-2.356.677-2.955.45-.598 1.18-.898 2.186-.898.885 0 1.502.274 1.849.82.347.547.52 1.376.52 2.486v7.602h3.697v-8.278c0-.834-.074-1.593-.221-2.278-.148-.686-.404-1.267-.768-1.745-.365-.477-.864-.85-1.497-1.119-.634-.269-1.445-.403-2.434-.403a5.27 5.27 0 0 0-2.291.533c-.746.356-1.354.924-1.822 1.705h-.078v-1.874h-3.515zm22.712 10.283c-.573 0-1.05-.121-1.432-.364a2.89 2.89 0 0 1-.924-.938 3.905 3.905 0 0 1-.495-1.288 7.35 7.35 0 0 1-.143-1.445c0-.503.056-.985.169-1.445.113-.46.295-.868.547-1.223a2.82 2.82 0 0 1 .937-.847c.373-.208.82-.312 1.34-.312.608 0 1.111.113 1.51.338.4.226.72.53.964.912.243.381.416.82.52 1.314.104.495.157 1.02.157 1.575 0 .486-.066.95-.196 1.393a3.69 3.69 0 0 1-.585 1.185c-.26.347-.59.624-.99.833-.399.208-.859.312-1.38.312zm6.664 2.317v-12.6h-3.514v1.796h-.053c-.45-.78-1.01-1.336-1.679-1.666-.668-.33-1.444-.494-2.33-.494-.937 0-1.765.182-2.486.546a5.347 5.347 0 0 0-1.809 1.471 6.566 6.566 0 0 0-1.106 2.135 8.39 8.39 0 0 0-.378 2.512c0 .92.109 1.792.326 2.616.216.825.56 1.545 1.028 2.161a4.94 4.94 0 0 0 1.796 1.458c.729.356 1.597.534 2.603.534.816 0 1.593-.17 2.33-.508a3.66 3.66 0 0 0 1.705-1.575h.053v1.77c.017.955-.213 1.744-.69 2.37-.478.624-1.237.936-2.278.936-.66 0-1.241-.134-1.744-.403-.504-.27-.842-.75-1.016-1.445h-3.67c.052.764.264 1.419.637 1.965.374.547.842.994 1.406 1.341a6.41 6.41 0 0 0 1.875.768 8.61 8.61 0 0 0 2.017.247c1.545 0 2.777-.208 3.697-.624.92-.417 1.623-.924 2.109-1.523a4.558 4.558 0 0 0 .95-1.94c.147-.694.221-1.31.221-1.848z" fill="#FFF"/></g></svg>